<svg width="59" height="59" viewBox="0 0 59 59" fill="none" xmlns="http://www.w3.org/2000/svg">
<g clip-path="url(#clip0)" filter="url(#filter0_d)">
<path d="M9.88977 38.4938C11.9553 35.8802 16.4075 36.1407 17.9504 33.1171C18.7976 31.4571 17.3844 29.198 17.9504 27.3972C18.2969 26.2947 18.9724 25.1772 19.9138 24.6517C22.7143 23.0884 25.6744 24.8068 28.8012 24.5373C31.0504 24.3434 33.9324 22.4882 36.0351 23.3933C37.7658 24.1383 39.2229 26.0837 39.6521 28.0837C40.0537 29.9553 38.722 33.346 38.722 33.8036C38.722 34.2612 40.3652 37.39 42.3391 38.6084C43.5186 39.3364 45.9256 38.7854 46.5761 40.0956C47.5777 42.1132 45.9963 43.7791 45.026 45.8155C44.5296 46.8573 43.185 48.8296 42.2359 49.3619C40.0365 50.595 37.3449 47.9945 34.8986 48.3323C32.842 48.6164 31.184 50.8658 29.1115 50.849C26.8406 50.8306 25.0775 47.9155 22.8076 47.9891C20.898 48.0511 19.5335 51.0207 17.6405 50.7346C13.6495 50.1316 9.43141 46.2759 8.54647 41.926C8.29901 40.7097 9.14837 39.4325 9.88992 38.4942L9.88977 38.4938Z" fill="#FFEDEB" stroke="#FFEDEB"/>
<path d="M13.404 23.1069C14.0241 29.1233 11.103 30.6 8.39199 30.6C5.68097 30.6 4 27.8652 4 23.2212C4 18.5775 6.61102 14.6985 9.32204 14.6985C12.0331 14.6985 13.404 18.4631 13.404 23.1069V23.1069Z" fill="#FFEDEB"/>
<path d="M41.7713 9.09303C42.1847 15.3383 39.5737 17.5013 36.8627 17.5013C34.1516 17.5013 31.3339 14.7665 31.954 9.09303C32.4578 4.48287 34.1516 1.82867 36.8627 1.82867C39.5737 1.82867 41.7713 4.44911 41.7713 9.09303V9.09303Z" fill="#FFEDEB"/>
<path d="M54.6897 23.6655C54.6897 27.9096 52.8005 30.1091 50.091 30.2001C43.8663 30.4092 45.699 25.1913 45.699 20.9473C45.699 16.7032 47.1733 14.4127 49.8843 14.4127C52.5953 14.4127 54.6897 19.4215 54.6897 23.6655V23.6655Z" fill="#FFEDEB"/>
<path d="M27.0156 8.66724C27.4289 15.2301 24.8179 17.503 22.1069 17.503C19.3958 17.503 16.5782 14.629 17.1982 8.66724C17.702 3.82276 19.1892 1.75486 22.1069 1.03371C24.7587 0.37816 27.0156 3.78757 27.0156 8.66724V8.66724Z" fill="#FFEDEB"/>
</g>
<defs>
<filter id="filter0_d" x="0" y="0.952393" width="58.6897" height="58" filterUnits="userSpaceOnUse" color-interpolation-filters="sRGB">
<feFlood flood-opacity="0" result="BackgroundImageFix"/>
<feColorMatrix in="SourceAlpha" type="matrix" values="0 0 0 0 0 0 0 0 0 0 0 0 0 0 0 0 0 0 127 0"/>
<feOffset dy="4"/>
<feGaussianBlur stdDeviation="2"/>
<feColorMatrix type="matrix" values="0 0 0 0 0 0 0 0 0 0 0 0 0 0 0 0 0 0 0.25 0"/>
<feBlend mode="normal" in2="BackgroundImageFix" result="effect1_dropShadow"/>
<feBlend mode="normal" in="SourceGraphic" in2="effect1_dropShadow" result="shape"/>
</filter>
<clipPath id="clip0">
<rect width="50.6897" height="50" fill="white" transform="translate(4 0.952393)"/>
</clipPath>
</defs>
</svg>
