<svg width="295" height="80" viewBox="0 0 295 80" fill="none" xmlns="http://www.w3.org/2000/svg">
<g filter="url(#filter0_d)">
<path d="M131.938 42.4688C131.938 47.6146 130.76 51.7604 128.406 54.9062C126.052 58.0521 122.865 59.625 118.844 59.625C114.74 59.625 111.51 58.3229 109.156 55.7188V72H103.375V25.1875H108.656L108.938 28.9375C111.292 26.0208 114.562 24.5625 118.75 24.5625C122.812 24.5625 126.021 26.0938 128.375 29.1562C130.75 32.2188 131.938 36.4792 131.938 41.9375V42.4688ZM126.156 41.8125C126.156 38 125.344 34.9896 123.719 32.7812C122.094 30.5729 119.865 29.4688 117.031 29.4688C113.531 29.4688 110.906 31.0208 109.156 34.125V50.2812C110.885 53.3646 113.531 54.9062 117.094 54.9062C119.865 54.9062 122.062 53.8125 123.688 51.625C125.333 49.4167 126.156 46.1458 126.156 41.8125ZM153.344 59.625C148.76 59.625 145.031 58.125 142.156 55.125C139.281 52.1042 137.844 48.0729 137.844 43.0312V41.9688C137.844 38.6146 138.479 35.625 139.75 33C141.042 30.3542 142.833 28.2917 145.125 26.8125C147.438 25.3125 149.938 24.5625 152.625 24.5625C157.021 24.5625 160.438 26.0104 162.875 28.9062C165.312 31.8021 166.531 35.9479 166.531 41.3438V43.75H143.625C143.708 47.0833 144.677 49.7812 146.531 51.8438C148.406 53.8854 150.781 54.9062 153.656 54.9062C155.698 54.9062 157.427 54.4896 158.844 53.6562C160.26 52.8229 161.5 51.7188 162.562 50.3438L166.094 53.0938C163.26 57.4479 159.01 59.625 153.344 59.625ZM152.625 29.3125C150.292 29.3125 148.333 30.1667 146.75 31.875C145.167 33.5625 144.188 35.9375 143.812 39H160.75V38.5625C160.583 35.625 159.792 33.3542 158.375 31.75C156.958 30.125 155.042 29.3125 152.625 29.3125ZM181.094 17V25.1875H187.406V29.6562H181.094V50.625C181.094 51.9792 181.375 53 181.938 53.6875C182.5 54.3542 183.458 54.6875 184.812 54.6875C185.479 54.6875 186.396 54.5625 187.562 54.3125V59C186.042 59.4167 184.562 59.625 183.125 59.625C180.542 59.625 178.594 58.8438 177.281 57.2812C175.969 55.7188 175.312 53.5 175.312 50.625V29.6562H169.156V25.1875H175.312V17H181.094ZM208.219 59.625C203.635 59.625 199.906 58.125 197.031 55.125C194.156 52.1042 192.719 48.0729 192.719 43.0312V41.9688C192.719 38.6146 193.354 35.625 194.625 33C195.917 30.3542 197.708 28.2917 200 26.8125C202.312 25.3125 204.812 24.5625 207.5 24.5625C211.896 24.5625 215.312 26.0104 217.75 28.9062C220.188 31.8021 221.406 35.9479 221.406 41.3438V43.75H198.5C198.583 47.0833 199.552 49.7812 201.406 51.8438C203.281 53.8854 205.656 54.9062 208.531 54.9062C210.573 54.9062 212.302 54.4896 213.719 53.6562C215.135 52.8229 216.375 51.7188 217.438 50.3438L220.969 53.0938C218.135 57.4479 213.885 59.625 208.219 59.625ZM207.5 29.3125C205.167 29.3125 203.208 30.1667 201.625 31.875C200.042 33.5625 199.062 35.9375 198.688 39H215.625V38.5625C215.458 35.625 214.667 33.3542 213.25 31.75C211.833 30.125 209.917 29.3125 207.5 29.3125ZM241.688 54.9062C243.75 54.9062 245.552 54.2812 247.094 53.0312C248.635 51.7812 249.49 50.2188 249.656 48.3438H255.125C255.021 50.2812 254.354 52.125 253.125 53.875C251.896 55.625 250.25 57.0208 248.188 58.0625C246.146 59.1042 243.979 59.625 241.688 59.625C237.083 59.625 233.417 58.0938 230.688 55.0312C227.979 51.9479 226.625 47.7396 226.625 42.4062V41.4375C226.625 38.1458 227.229 35.2188 228.438 32.6562C229.646 30.0938 231.375 28.1042 233.625 26.6875C235.896 25.2708 238.573 24.5625 241.656 24.5625C245.448 24.5625 248.594 25.6979 251.094 27.9688C253.615 30.2396 254.958 33.1875 255.125 36.8125H249.656C249.49 34.625 248.656 32.8333 247.156 31.4375C245.677 30.0208 243.844 29.3125 241.656 29.3125C238.719 29.3125 236.438 30.375 234.812 32.5C233.208 34.6042 232.406 37.6562 232.406 41.6562V42.75C232.406 46.6458 233.208 49.6458 234.812 51.75C236.417 53.8542 238.708 54.9062 241.688 54.9062ZM260.094 41.7812C260.094 38.4688 260.74 35.4896 262.031 32.8438C263.344 30.1979 265.156 28.1562 267.469 26.7188C269.802 25.2812 272.458 24.5625 275.438 24.5625C280.042 24.5625 283.76 26.1562 286.594 29.3438C289.448 32.5312 290.875 36.7708 290.875 42.0625V42.4688C290.875 45.7604 290.24 48.7188 288.969 51.3438C287.719 53.9479 285.917 55.9792 283.562 57.4375C281.229 58.8958 278.542 59.625 275.5 59.625C270.917 59.625 267.198 58.0312 264.344 54.8438C261.51 51.6562 260.094 47.4375 260.094 42.1875V41.7812ZM265.906 42.4688C265.906 46.2188 266.771 49.2292 268.5 51.5C270.25 53.7708 272.583 54.9062 275.5 54.9062C278.438 54.9062 280.771 53.7604 282.5 51.4688C284.229 49.1562 285.094 45.9271 285.094 41.7812C285.094 38.0729 284.208 35.0729 282.438 32.7812C280.688 30.4688 278.354 29.3125 275.438 29.3125C272.583 29.3125 270.281 30.4479 268.531 32.7188C266.781 34.9896 265.906 38.2396 265.906 42.4688Z" fill="#484542"/>
</g>
<g clip-path="url(#clip0)" filter="url(#filter1_d)">
<path d="M12.8306 54.0563C15.9274 50.5017 22.6028 50.856 24.9161 46.744C26.1863 44.4863 24.0675 41.414 24.9161 38.9648C25.4356 37.4655 26.4483 35.9457 27.8599 35.231C32.0587 33.105 36.4968 35.442 41.1848 35.0754C44.5572 34.8118 48.8782 32.2887 52.0308 33.5196C54.6257 34.5328 56.8103 37.1786 57.4539 39.8985C58.0561 42.4439 56.0594 47.0553 56.0594 47.6776C56.0594 48.3 58.523 52.555 61.4825 54.2121C63.251 55.2023 66.8599 54.4528 67.8352 56.2347C69.3369 58.9787 66.9658 61.2443 65.5111 64.0138C64.7669 65.4306 62.7508 68.113 61.3278 68.8369C58.0303 70.5139 53.9947 66.9772 50.3269 67.4367C47.2434 67.823 44.7574 70.8822 41.6501 70.8594C38.2453 70.8344 35.602 66.8698 32.1986 66.9699C29.3354 67.0541 27.2896 71.0929 24.4514 70.7038C18.4676 69.8837 12.1434 64.6399 10.8166 58.7241C10.4456 57.0699 11.719 55.3329 12.8308 54.0568L12.8306 54.0563Z" fill="#484542" stroke="#484542"/>
<path d="M18.0996 33.1301C19.0293 41.3124 14.6497 43.3207 10.585 43.3207C6.52031 43.3207 4 39.6014 4 33.2856C4 26.9702 7.91475 21.6948 11.9794 21.6948C16.0441 21.6948 18.0996 26.8146 18.0996 33.1301Z" fill="#484542"/>
<path d="M60.6314 14.0712C61.2511 22.5648 57.3364 25.5065 53.2717 25.5065C49.207 25.5065 44.9823 21.7872 45.912 14.0712C46.6674 7.80142 49.207 4.19171 53.2717 4.19171C57.3364 4.19171 60.6314 7.7555 60.6314 14.0712Z" fill="#484542"/>
<path d="M80 33.8898C80 39.6618 77.1676 42.6531 73.1051 42.7769C63.7723 43.0613 66.5201 35.9649 66.5201 30.193C66.5201 24.4211 68.7306 21.306 72.7953 21.306C76.8599 21.306 80 28.1179 80 33.8898Z" fill="#484542"/>
<path d="M38.5077 13.4925C39.1274 22.418 35.2127 25.5092 31.148 25.5092C27.0833 25.5092 22.8586 21.6006 23.7883 13.4925C24.5437 6.90403 26.7734 4.09169 31.148 3.11092C35.124 2.21937 38.5077 6.85616 38.5077 13.4925Z" fill="#484542"/>
</g>
<defs>
<filter id="filter0_d" x="99.375" y="17" width="195.5" height="63" filterUnits="userSpaceOnUse" color-interpolation-filters="sRGB">
<feFlood flood-opacity="0" result="BackgroundImageFix"/>
<feColorMatrix in="SourceAlpha" type="matrix" values="0 0 0 0 0 0 0 0 0 0 0 0 0 0 0 0 0 0 127 0"/>
<feOffset dy="4"/>
<feGaussianBlur stdDeviation="2"/>
<feColorMatrix type="matrix" values="0 0 0 0 0 0 0 0 0 0 0 0 0 0 0 0 0 0 0.25 0"/>
<feBlend mode="normal" in2="BackgroundImageFix" result="effect1_dropShadow"/>
<feBlend mode="normal" in="SourceGraphic" in2="effect1_dropShadow" result="shape"/>
</filter>
<filter id="filter1_d" x="0" y="3" width="84" height="76" filterUnits="userSpaceOnUse" color-interpolation-filters="sRGB">
<feFlood flood-opacity="0" result="BackgroundImageFix"/>
<feColorMatrix in="SourceAlpha" type="matrix" values="0 0 0 0 0 0 0 0 0 0 0 0 0 0 0 0 0 0 127 0"/>
<feOffset dy="4"/>
<feGaussianBlur stdDeviation="2"/>
<feColorMatrix type="matrix" values="0 0 0 0 0 0 0 0 0 0 0 0 0 0 0 0 0 0 0.25 0"/>
<feBlend mode="normal" in2="BackgroundImageFix" result="effect1_dropShadow"/>
<feBlend mode="normal" in="SourceGraphic" in2="effect1_dropShadow" result="shape"/>
</filter>
<clipPath id="clip0">
<rect width="76" height="68" fill="white" transform="translate(4 3)"/>
</clipPath>
</defs>
</svg>
